<svg width="40" height="40" viewBox="0 0 40 40" fill="none" xmlns="http://www.w3.org/2000/svg">
<path d="M12.7999 2.40039C7.06589 2.40039 2.3999 7.06637 2.3999 12.8004V27.2004C2.3999 32.9344 7.06589 37.6004 12.7999 37.6004H27.1999C32.9339 37.6004 37.5999 32.9344 37.5999 27.2004V12.8004C37.5999 7.06637 32.9339 2.40039 27.1999 2.40039H12.7999ZM12.7999 4.00039H27.1999C32.0691 4.00039 35.9999 7.93121 35.9999 12.8004V27.2004C35.9999 32.0696 32.0691 36.0004 27.1999 36.0004H12.7999C7.93072 36.0004 3.9999 32.0696 3.9999 27.2004V12.8004C3.9999 7.93121 7.93072 4.00039 12.7999 4.00039ZM29.5999 8.80039C28.7162 8.80039 27.9999 9.51673 27.9999 10.4004C27.9999 11.284 28.7162 12.0004 29.5999 12.0004C30.4836 12.0004 31.1999 11.284 31.1999 10.4004C31.1999 9.51673 30.4836 8.80039 29.5999 8.80039ZM19.9999 11.2004C15.1493 11.2004 11.1999 15.1498 11.1999 20.0004C11.1999 24.851 15.1493 28.8004 19.9999 28.8004C24.8505 28.8004 28.7999 24.851 28.7999 20.0004C28.7999 15.1498 24.8505 11.2004 19.9999 11.2004ZM19.9999 12.8004C23.9858 12.8004 27.1999 16.0145 27.1999 20.0004C27.1999 23.9863 23.9858 27.2004 19.9999 27.2004C16.014 27.2004 12.7999 23.9863 12.7999 20.0004C12.7999 16.0145 16.014 12.8004 19.9999 12.8004Z" fill="white" fill-opacity="0.6"/>
</svg>
