<svg width="40" height="40" viewBox="0 0 40 40" fill="none" xmlns="http://www.w3.org/2000/svg">
<path d="M32.8002 3.19922H7.2002C4.9922 3.19922 3.2002 4.99122 3.2002 7.19922V32.7992C3.2002 35.0072 4.9922 36.7992 7.2002 36.7992H32.8002C35.0082 36.7992 36.8002 35.0072 36.8002 32.7992V7.19922C36.8002 4.99122 35.0082 3.19922 32.8002 3.19922ZM13.6002 15.9992V31.1992H8.8002V15.9992H13.6002ZM8.8002 11.5752C8.8002 10.4552 9.7602 9.59922 11.2002 9.59922C12.6402 9.59922 13.5442 10.4552 13.6002 11.5752C13.6002 12.6952 12.7042 13.5992 11.2002 13.5992C9.7602 13.5992 8.8002 12.6952 8.8002 11.5752ZM31.2002 31.1992H26.4002C26.4002 31.1992 26.4002 23.7912 26.4002 23.1992C26.4002 21.5992 25.6002 19.9992 23.6002 19.9672H23.5362C21.6002 19.9672 20.8002 21.6152 20.8002 23.1992C20.8002 23.9272 20.8002 31.1992 20.8002 31.1992H16.0002V15.9992H20.8002V18.0472C20.8002 18.0472 22.3442 15.9992 25.4482 15.9992C28.6242 15.9992 31.2002 18.1832 31.2002 22.6072V31.1992Z" fill="white" fill-opacity="0.6"/>
</svg>
