<svg width="40" height="40" viewBox="0 0 40 40" fill="none" xmlns="http://www.w3.org/2000/svg">
<path d="M17.0719 1.60615C14.8344 1.69053 10.2001 3.08428 9.19069 4.12491C8.80631 4.49053 8.70944 5.04053 8.80631 5.40615C8.99694 5.77178 16.7813 17.5843 16.7813 17.5843C17.9344 19.4155 18.5344 19.2124 18.8251 19.1218C19.1126 19.028 20.0719 18.6843 19.8813 16.4874C19.7844 14.0124 19.0157 3.11866 18.9219 2.56866C18.7282 2.11241 18.4407 1.74366 17.8626 1.64991C17.6594 1.60615 17.3907 1.59366 17.0719 1.60615ZM29.3126 12.7999C29.0876 12.8093 28.8688 12.878 28.6782 13.0155C28.0782 13.6062 28.2907 13.1874 24.8376 17.7624L23.2032 19.8655C22.8188 20.3218 22.9094 21.0874 23.2938 21.6374C23.6782 22.1874 24.2001 22.478 24.9313 22.3374C25.2188 22.2436 25.7969 22.153 26.8501 21.878C33.4751 20.4155 33.5344 20.4249 33.8251 20.2437C34.2063 19.9686 34.4001 19.603 34.4001 19.053V18.9624C34.2063 17.4999 31.3657 13.5655 30.0219 12.9249C29.7813 12.8343 29.5407 12.7874 29.3126 12.7999ZM7.51257 19.1749C7.12819 19.1749 6.64694 19.3593 6.35632 19.8155C5.68445 20.7343 5.47819 23.6562 5.66882 25.6718C5.7657 26.3124 5.86258 26.8343 6.0532 27.1999C6.3407 27.6593 6.72507 27.9343 7.20633 27.9343C7.49383 27.9343 7.27508 27.8499 13.0407 26.203L15.6376 25.378C16.3094 25.1937 16.7782 24.7343 16.7782 24.003C16.7782 23.2718 16.422 22.6655 15.7501 22.3905L13.9251 21.6593C7.6782 19.1843 7.80006 19.1749 7.51257 19.1749ZM24.8751 25.6187C24.3751 25.5812 23.9063 25.7062 23.5501 26.0874C23.2407 26.4249 23.0063 27.3843 23.3907 27.9343L24.4469 29.4874C27.9063 34.7999 27.9251 35.0718 28.2126 35.2562C28.5969 35.6218 29.0782 35.6249 29.5594 35.4405C31.0969 34.8905 34.1032 31.2499 34.2938 29.7843C34.3907 29.328 34.2001 28.8687 33.8126 28.4124C33.6219 28.228 33.2219 28.1624 27.8376 26.4905L25.3751 25.7093C25.2094 25.6624 25.0407 25.6312 24.8751 25.6187ZM18.4501 27.2249C17.9344 27.1687 17.4376 27.2718 17.1501 27.6843L15.9001 29.1468C11.5751 33.9999 11.3844 34.2749 11.2876 34.5499C11.1907 34.7343 11.1907 34.9155 11.1907 35.0999C11.2876 35.3718 11.3844 35.5562 11.5751 35.8312C12.6313 36.9312 17.3001 38.6468 18.8376 38.3718C19.3188 38.2812 19.7032 38.003 19.8938 37.5468C19.9907 37.2718 19.9876 37.0905 19.9876 31.3218V28.6655C19.9907 27.8624 19.6376 27.5968 18.9626 27.3218C18.797 27.2749 18.6219 27.2405 18.4501 27.2249Z" fill="white" fill-opacity="0.6"/>
</svg>
